<mxfile host="app.diagrams.net" modified="2021-08-13T06:23:23.427Z" agent="5.0 (Windows NT 10.0; Win64; x64) AppleWebKit/537.36 (KHTML, like Gecko) Chrome/92.0.4515.131 Safari/537.36" etag="q5R0QJxkWtzqOm1to747" version="14.9.6" type="github">
  <diagram id="R2lEEEUBdFMjLlhIrx00" name="Page-1">
    <mxGraphModel dx="1278" dy="435" grid="1" gridSize="10" guides="1" tooltips="1" connect="1" arrows="1" fold="1" page="1" pageScale="1" pageWidth="850" pageHeight="1100" math="0" shadow="0" extFonts="Permanent Marker^https://fonts.googleapis.com/css?family=Permanent+Marker">
      <root>
        <mxCell id="0" />
        <mxCell id="1" parent="0" />
        <mxCell id="QOLLg4jgMWTBETWeJYnG-1" value="User" style="whiteSpace=wrap;html=1;align=center;" vertex="1" parent="1">
          <mxGeometry x="200" y="240" width="80" height="40" as="geometry" />
        </mxCell>
        <mxCell id="QOLLg4jgMWTBETWeJYnG-2" value="user_id" style="ellipse;whiteSpace=wrap;html=1;align=center;fontStyle=4;" vertex="1" parent="1">
          <mxGeometry x="510" y="120" width="80" height="30" as="geometry" />
        </mxCell>
        <mxCell id="QOLLg4jgMWTBETWeJYnG-3" value="age" style="ellipse;whiteSpace=wrap;html=1;align=center;" vertex="1" parent="1">
          <mxGeometry x="470" y="160" width="70" height="30" as="geometry" />
        </mxCell>
        <mxCell id="QOLLg4jgMWTBETWeJYnG-4" value="name" style="ellipse;whiteSpace=wrap;html=1;align=center;" vertex="1" parent="1">
          <mxGeometry x="190" y="160" width="80" height="30" as="geometry" />
        </mxCell>
        <mxCell id="QOLLg4jgMWTBETWeJYnG-5" value="trainer_preference" style="ellipse;whiteSpace=wrap;html=1;align=center;" vertex="1" parent="1">
          <mxGeometry x="670" y="120" width="120" height="40" as="geometry" />
        </mxCell>
        <mxCell id="QOLLg4jgMWTBETWeJYnG-6" value="address" style="ellipse;whiteSpace=wrap;html=1;align=center;" vertex="1" parent="1">
          <mxGeometry x="120" y="300" width="100" height="40" as="geometry" />
        </mxCell>
        <mxCell id="QOLLg4jgMWTBETWeJYnG-7" value="contact_number" style="ellipse;whiteSpace=wrap;html=1;align=center;" vertex="1" parent="1">
          <mxGeometry x="45" y="230" width="100" height="30" as="geometry" />
        </mxCell>
        <mxCell id="QOLLg4jgMWTBETWeJYnG-10" value="can&amp;nbsp;" style="shape=rhombus;perimeter=rhombusPerimeter;whiteSpace=wrap;html=1;align=center;" vertex="1" parent="1">
          <mxGeometry x="390" y="235" width="70" height="50" as="geometry" />
        </mxCell>
        <mxCell id="QOLLg4jgMWTBETWeJYnG-11" value="pincode" style="ellipse;whiteSpace=wrap;html=1;align=center;" vertex="1" parent="1">
          <mxGeometry x="240" y="340" width="100" height="40" as="geometry" />
        </mxCell>
        <mxCell id="QOLLg4jgMWTBETWeJYnG-12" value="country" style="ellipse;whiteSpace=wrap;html=1;align=center;" vertex="1" parent="1">
          <mxGeometry x="210" y="400" width="100" height="40" as="geometry" />
        </mxCell>
        <mxCell id="QOLLg4jgMWTBETWeJYnG-13" value="state" style="ellipse;whiteSpace=wrap;html=1;align=center;" vertex="1" parent="1">
          <mxGeometry x="170" y="450" width="100" height="40" as="geometry" />
        </mxCell>
        <mxCell id="QOLLg4jgMWTBETWeJYnG-14" value="city" style="ellipse;whiteSpace=wrap;html=1;align=center;" vertex="1" parent="1">
          <mxGeometry x="120" y="370" width="60" height="30" as="geometry" />
        </mxCell>
        <mxCell id="QOLLg4jgMWTBETWeJYnG-15" value="address_line2" style="ellipse;whiteSpace=wrap;html=1;align=center;" vertex="1" parent="1">
          <mxGeometry x="45" y="400" width="90" height="40" as="geometry" />
        </mxCell>
        <mxCell id="QOLLg4jgMWTBETWeJYnG-16" value="address_line1" style="ellipse;whiteSpace=wrap;html=1;align=center;" vertex="1" parent="1">
          <mxGeometry x="10" y="350" width="90" height="40" as="geometry" />
        </mxCell>
        <mxCell id="QOLLg4jgMWTBETWeJYnG-20" value="" style="endArrow=none;html=1;rounded=0;exitX=1;exitY=0.5;exitDx=0;exitDy=0;" edge="1" parent="1" source="QOLLg4jgMWTBETWeJYnG-7">
          <mxGeometry relative="1" as="geometry">
            <mxPoint x="45" y="260" as="sourcePoint" />
            <mxPoint x="200" y="260" as="targetPoint" />
          </mxGeometry>
        </mxCell>
        <mxCell id="QOLLg4jgMWTBETWeJYnG-21" value="" style="endArrow=none;html=1;rounded=0;entryX=0.5;entryY=1;entryDx=0;entryDy=0;" edge="1" parent="1" source="QOLLg4jgMWTBETWeJYnG-1" target="QOLLg4jgMWTBETWeJYnG-4">
          <mxGeometry relative="1" as="geometry">
            <mxPoint x="250" y="238" as="sourcePoint" />
            <mxPoint x="275" y="190" as="targetPoint" />
          </mxGeometry>
        </mxCell>
        <mxCell id="QOLLg4jgMWTBETWeJYnG-22" value="" style="endArrow=none;html=1;rounded=0;entryX=0.5;entryY=1;entryDx=0;entryDy=0;exitX=0.412;exitY=0;exitDx=0;exitDy=0;exitPerimeter=0;" edge="1" parent="1" source="QOLLg4jgMWTBETWeJYnG-35" target="QOLLg4jgMWTBETWeJYnG-2">
          <mxGeometry relative="1" as="geometry">
            <mxPoint x="255" y="240" as="sourcePoint" />
            <mxPoint x="325" y="240" as="targetPoint" />
          </mxGeometry>
        </mxCell>
        <mxCell id="QOLLg4jgMWTBETWeJYnG-24" value="" style="endArrow=none;html=1;rounded=0;entryX=0;entryY=1;entryDx=0;entryDy=0;" edge="1" parent="1" target="QOLLg4jgMWTBETWeJYnG-1">
          <mxGeometry relative="1" as="geometry">
            <mxPoint x="180" y="300" as="sourcePoint" />
            <mxPoint x="270" y="300" as="targetPoint" />
          </mxGeometry>
        </mxCell>
        <mxCell id="QOLLg4jgMWTBETWeJYnG-25" value="" style="endArrow=none;html=1;rounded=0;exitX=0.444;exitY=0;exitDx=0;exitDy=0;exitPerimeter=0;entryX=0;entryY=0.5;entryDx=0;entryDy=0;" edge="1" parent="1" source="QOLLg4jgMWTBETWeJYnG-16" target="QOLLg4jgMWTBETWeJYnG-6">
          <mxGeometry relative="1" as="geometry">
            <mxPoint x="50" y="330" as="sourcePoint" />
            <mxPoint x="120" y="330" as="targetPoint" />
          </mxGeometry>
        </mxCell>
        <mxCell id="QOLLg4jgMWTBETWeJYnG-26" value="" style="endArrow=none;html=1;rounded=0;entryX=0;entryY=1;entryDx=0;entryDy=0;exitX=0.5;exitY=0;exitDx=0;exitDy=0;" edge="1" parent="1" source="QOLLg4jgMWTBETWeJYnG-15" target="QOLLg4jgMWTBETWeJYnG-6">
          <mxGeometry relative="1" as="geometry">
            <mxPoint x="102" y="397" as="sourcePoint" />
            <mxPoint x="190" y="340" as="targetPoint" />
          </mxGeometry>
        </mxCell>
        <mxCell id="QOLLg4jgMWTBETWeJYnG-27" value="" style="endArrow=none;html=1;rounded=0;entryX=0.32;entryY=0.06;entryDx=0;entryDy=0;entryPerimeter=0;" edge="1" parent="1" target="QOLLg4jgMWTBETWeJYnG-13">
          <mxGeometry relative="1" as="geometry">
            <mxPoint x="170" y="340" as="sourcePoint" />
            <mxPoint x="330" y="340" as="targetPoint" />
          </mxGeometry>
        </mxCell>
        <mxCell id="QOLLg4jgMWTBETWeJYnG-28" value="" style="endArrow=none;html=1;rounded=0;entryX=0.5;entryY=0;entryDx=0;entryDy=0;" edge="1" parent="1" target="QOLLg4jgMWTBETWeJYnG-14">
          <mxGeometry relative="1" as="geometry">
            <mxPoint x="150" y="340" as="sourcePoint" />
            <mxPoint x="160" y="370" as="targetPoint" />
          </mxGeometry>
        </mxCell>
        <mxCell id="QOLLg4jgMWTBETWeJYnG-29" value="" style="endArrow=none;html=1;rounded=0;entryX=0;entryY=0.5;entryDx=0;entryDy=0;" edge="1" parent="1" target="QOLLg4jgMWTBETWeJYnG-10">
          <mxGeometry relative="1" as="geometry">
            <mxPoint x="280" y="260" as="sourcePoint" />
            <mxPoint x="590" y="300" as="targetPoint" />
            <Array as="points">
              <mxPoint x="280" y="260" />
            </Array>
          </mxGeometry>
        </mxCell>
        <mxCell id="QOLLg4jgMWTBETWeJYnG-30" value="" style="endArrow=none;html=1;rounded=0;exitX=0.668;exitY=0.96;exitDx=0;exitDy=0;exitPerimeter=0;" edge="1" parent="1" source="QOLLg4jgMWTBETWeJYnG-6">
          <mxGeometry relative="1" as="geometry">
            <mxPoint x="85" y="399.2" as="sourcePoint" />
            <mxPoint x="245" y="399.2" as="targetPoint" />
          </mxGeometry>
        </mxCell>
        <mxCell id="QOLLg4jgMWTBETWeJYnG-31" value="" style="endArrow=none;html=1;rounded=0;exitX=1;exitY=0.5;exitDx=0;exitDy=0;" edge="1" parent="1" source="QOLLg4jgMWTBETWeJYnG-6" target="QOLLg4jgMWTBETWeJYnG-11">
          <mxGeometry relative="1" as="geometry">
            <mxPoint x="450" y="320" as="sourcePoint" />
            <mxPoint x="610" y="320" as="targetPoint" />
          </mxGeometry>
        </mxCell>
        <mxCell id="QOLLg4jgMWTBETWeJYnG-33" value="" style="endArrow=none;html=1;rounded=0;" edge="1" parent="1" target="QOLLg4jgMWTBETWeJYnG-35">
          <mxGeometry relative="1" as="geometry">
            <mxPoint x="460" y="260" as="sourcePoint" />
            <mxPoint x="550" y="260" as="targetPoint" />
          </mxGeometry>
        </mxCell>
        <mxCell id="QOLLg4jgMWTBETWeJYnG-35" value="ViewAppointment" style="whiteSpace=wrap;html=1;align=center;" vertex="1" parent="1">
          <mxGeometry x="500" y="240" width="100" height="40" as="geometry" />
        </mxCell>
        <mxCell id="QOLLg4jgMWTBETWeJYnG-41" value="" style="endArrow=none;html=1;rounded=0;exitX=1;exitY=1;exitDx=0;exitDy=0;" edge="1" parent="1" source="QOLLg4jgMWTBETWeJYnG-10" target="QOLLg4jgMWTBETWeJYnG-42">
          <mxGeometry relative="1" as="geometry">
            <mxPoint x="360" y="390" as="sourcePoint" />
            <mxPoint x="425" y="410" as="targetPoint" />
          </mxGeometry>
        </mxCell>
        <mxCell id="QOLLg4jgMWTBETWeJYnG-42" value="PostAppointment" style="whiteSpace=wrap;html=1;align=center;" vertex="1" parent="1">
          <mxGeometry x="550" y="510" width="100" height="40" as="geometry" />
        </mxCell>
        <mxCell id="QOLLg4jgMWTBETWeJYnG-45" style="edgeStyle=orthogonalEdgeStyle;rounded=0;orthogonalLoop=1;jettySize=auto;html=1;exitX=0.5;exitY=1;exitDx=0;exitDy=0;" edge="1" parent="1" source="QOLLg4jgMWTBETWeJYnG-10" target="QOLLg4jgMWTBETWeJYnG-10">
          <mxGeometry relative="1" as="geometry" />
        </mxCell>
        <mxCell id="QOLLg4jgMWTBETWeJYnG-48" value="name" style="ellipse;whiteSpace=wrap;html=1;align=center;" vertex="1" parent="1">
          <mxGeometry x="380" y="145" width="80" height="30" as="geometry" />
        </mxCell>
        <mxCell id="QOLLg4jgMWTBETWeJYnG-49" value="age" style="ellipse;whiteSpace=wrap;html=1;align=center;" vertex="1" parent="1">
          <mxGeometry x="140" y="200" width="70" height="30" as="geometry" />
        </mxCell>
        <mxCell id="QOLLg4jgMWTBETWeJYnG-50" value="contact_number" style="ellipse;whiteSpace=wrap;html=1;align=center;" vertex="1" parent="1">
          <mxGeometry x="570" y="145" width="100" height="35" as="geometry" />
        </mxCell>
        <mxCell id="QOLLg4jgMWTBETWeJYnG-51" value="address" style="ellipse;whiteSpace=wrap;html=1;align=center;" vertex="1" parent="1">
          <mxGeometry x="710" y="175" width="100" height="35" as="geometry" />
        </mxCell>
        <mxCell id="QOLLg4jgMWTBETWeJYnG-52" value="physio_required" style="ellipse;whiteSpace=wrap;html=1;align=center;" vertex="1" parent="1">
          <mxGeometry x="730" y="285" width="100" height="40" as="geometry" />
        </mxCell>
        <mxCell id="QOLLg4jgMWTBETWeJYnG-53" value="total_amount" style="ellipse;whiteSpace=wrap;html=1;align=center;" vertex="1" parent="1">
          <mxGeometry x="690" y="230" width="100" height="40" as="geometry" />
        </mxCell>
        <mxCell id="QOLLg4jgMWTBETWeJYnG-54" value="package" style="ellipse;whiteSpace=wrap;html=1;align=center;" vertex="1" parent="1">
          <mxGeometry x="550" y="310" width="100" height="40" as="geometry" />
        </mxCell>
        <mxCell id="QOLLg4jgMWTBETWeJYnG-57" value="" style="endArrow=none;html=1;rounded=0;exitX=0.5;exitY=1;exitDx=0;exitDy=0;entryX=0;entryY=0;entryDx=0;entryDy=0;" edge="1" parent="1" source="QOLLg4jgMWTBETWeJYnG-48" target="QOLLg4jgMWTBETWeJYnG-35">
          <mxGeometry relative="1" as="geometry">
            <mxPoint x="360" y="230" as="sourcePoint" />
            <mxPoint x="520" y="230" as="targetPoint" />
          </mxGeometry>
        </mxCell>
        <mxCell id="QOLLg4jgMWTBETWeJYnG-58" value="" style="endArrow=none;html=1;rounded=0;" edge="1" parent="1" target="QOLLg4jgMWTBETWeJYnG-3">
          <mxGeometry relative="1" as="geometry">
            <mxPoint x="514" y="238" as="sourcePoint" />
            <mxPoint x="520" y="230" as="targetPoint" />
          </mxGeometry>
        </mxCell>
        <mxCell id="QOLLg4jgMWTBETWeJYnG-59" value="" style="endArrow=none;html=1;rounded=0;entryX=0.5;entryY=1;entryDx=0;entryDy=0;" edge="1" parent="1" target="QOLLg4jgMWTBETWeJYnG-50">
          <mxGeometry relative="1" as="geometry">
            <mxPoint x="560" y="240" as="sourcePoint" />
            <mxPoint x="520" y="230" as="targetPoint" />
          </mxGeometry>
        </mxCell>
        <mxCell id="QOLLg4jgMWTBETWeJYnG-60" value="" style="endArrow=none;html=1;rounded=0;exitX=0.5;exitY=1;exitDx=0;exitDy=0;" edge="1" parent="1" source="QOLLg4jgMWTBETWeJYnG-35">
          <mxGeometry relative="1" as="geometry">
            <mxPoint x="450" y="310" as="sourcePoint" />
            <mxPoint x="610" y="310" as="targetPoint" />
          </mxGeometry>
        </mxCell>
        <mxCell id="QOLLg4jgMWTBETWeJYnG-61" value="" style="endArrow=none;html=1;rounded=0;exitX=1;exitY=1;exitDx=0;exitDy=0;" edge="1" parent="1" source="QOLLg4jgMWTBETWeJYnG-35">
          <mxGeometry relative="1" as="geometry">
            <mxPoint x="570" y="300" as="sourcePoint" />
            <mxPoint x="730" y="300" as="targetPoint" />
          </mxGeometry>
        </mxCell>
        <mxCell id="QOLLg4jgMWTBETWeJYnG-62" value="" style="endArrow=none;html=1;rounded=0;exitX=1;exitY=0.5;exitDx=0;exitDy=0;entryX=0;entryY=0.5;entryDx=0;entryDy=0;" edge="1" parent="1" source="QOLLg4jgMWTBETWeJYnG-35" target="QOLLg4jgMWTBETWeJYnG-53">
          <mxGeometry relative="1" as="geometry">
            <mxPoint x="530" y="260" as="sourcePoint" />
            <mxPoint x="650" y="260" as="targetPoint" />
          </mxGeometry>
        </mxCell>
        <mxCell id="QOLLg4jgMWTBETWeJYnG-63" value="" style="endArrow=none;html=1;rounded=0;exitX=1;exitY=0;exitDx=0;exitDy=0;entryX=0;entryY=0.5;entryDx=0;entryDy=0;entryPerimeter=0;" edge="1" parent="1" source="QOLLg4jgMWTBETWeJYnG-35" target="QOLLg4jgMWTBETWeJYnG-51">
          <mxGeometry relative="1" as="geometry">
            <mxPoint x="580" y="230" as="sourcePoint" />
            <mxPoint x="740" y="230" as="targetPoint" />
          </mxGeometry>
        </mxCell>
        <mxCell id="QOLLg4jgMWTBETWeJYnG-64" value="" style="endArrow=none;html=1;rounded=0;entryX=0.457;entryY=0.98;entryDx=0;entryDy=0;entryPerimeter=0;exitX=0.7;exitY=-0.02;exitDx=0;exitDy=0;exitPerimeter=0;" edge="1" parent="1" source="QOLLg4jgMWTBETWeJYnG-35" target="QOLLg4jgMWTBETWeJYnG-5">
          <mxGeometry relative="1" as="geometry">
            <mxPoint x="530" y="239.2" as="sourcePoint" />
            <mxPoint x="690" y="239.2" as="targetPoint" />
          </mxGeometry>
        </mxCell>
        <mxCell id="QOLLg4jgMWTBETWeJYnG-67" value="user_id" style="ellipse;whiteSpace=wrap;html=1;align=center;fontStyle=4;" vertex="1" parent="1">
          <mxGeometry x="280" y="190" width="80" height="30" as="geometry" />
        </mxCell>
        <mxCell id="QOLLg4jgMWTBETWeJYnG-70" value="" style="endArrow=none;html=1;rounded=0;exitX=0.5;exitY=1;exitDx=0;exitDy=0;entryX=0.43;entryY=-0.025;entryDx=0;entryDy=0;entryPerimeter=0;" edge="1" parent="1" source="QOLLg4jgMWTBETWeJYnG-42" target="QOLLg4jgMWTBETWeJYnG-82">
          <mxGeometry relative="1" as="geometry">
            <mxPoint x="640" y="509.6" as="sourcePoint" />
            <mxPoint x="580" y="560" as="targetPoint" />
          </mxGeometry>
        </mxCell>
        <mxCell id="QOLLg4jgMWTBETWeJYnG-71" value="" style="endArrow=none;html=1;rounded=0;entryX=0;entryY=1;entryDx=0;entryDy=0;exitX=0.75;exitY=0;exitDx=0;exitDy=0;" edge="1" parent="1" source="QOLLg4jgMWTBETWeJYnG-1" target="QOLLg4jgMWTBETWeJYnG-67">
          <mxGeometry relative="1" as="geometry">
            <mxPoint x="360" y="230" as="sourcePoint" />
            <mxPoint x="520" y="230" as="targetPoint" />
          </mxGeometry>
        </mxCell>
        <mxCell id="QOLLg4jgMWTBETWeJYnG-72" value="name" style="ellipse;whiteSpace=wrap;html=1;align=center;" vertex="1" parent="1">
          <mxGeometry x="410" y="430" width="80" height="30" as="geometry" />
        </mxCell>
        <mxCell id="QOLLg4jgMWTBETWeJYnG-73" value="age" style="ellipse;whiteSpace=wrap;html=1;align=center;" vertex="1" parent="1">
          <mxGeometry x="760" y="515" width="70" height="30" as="geometry" />
        </mxCell>
        <mxCell id="QOLLg4jgMWTBETWeJYnG-74" value="contact_number" style="ellipse;whiteSpace=wrap;html=1;align=center;" vertex="1" parent="1">
          <mxGeometry x="380" y="480" width="100" height="30" as="geometry" />
        </mxCell>
        <mxCell id="QOLLg4jgMWTBETWeJYnG-77" value="" style="endArrow=none;html=1;rounded=0;exitX=1;exitY=1;exitDx=0;exitDy=0;entryX=0.25;entryY=0;entryDx=0;entryDy=0;" edge="1" parent="1" source="QOLLg4jgMWTBETWeJYnG-49" target="QOLLg4jgMWTBETWeJYnG-1">
          <mxGeometry relative="1" as="geometry">
            <mxPoint x="360" y="240" as="sourcePoint" />
            <mxPoint x="520" y="240" as="targetPoint" />
          </mxGeometry>
        </mxCell>
        <mxCell id="QOLLg4jgMWTBETWeJYnG-79" value="email-id" style="ellipse;whiteSpace=wrap;html=1;align=center;fontStyle=4;" vertex="1" parent="1">
          <mxGeometry y="270" width="90" height="40" as="geometry" />
        </mxCell>
        <mxCell id="QOLLg4jgMWTBETWeJYnG-80" value="" style="endArrow=none;html=1;rounded=0;exitX=1;exitY=0.5;exitDx=0;exitDy=0;entryX=0;entryY=0.75;entryDx=0;entryDy=0;" edge="1" parent="1" source="QOLLg4jgMWTBETWeJYnG-79" target="QOLLg4jgMWTBETWeJYnG-1">
          <mxGeometry relative="1" as="geometry">
            <mxPoint x="360" y="240" as="sourcePoint" />
            <mxPoint x="520" y="240" as="targetPoint" />
          </mxGeometry>
        </mxCell>
        <mxCell id="QOLLg4jgMWTBETWeJYnG-81" value="email-id" style="ellipse;whiteSpace=wrap;html=1;align=center;fontStyle=4;" vertex="1" parent="1">
          <mxGeometry x="350" y="540" width="90" height="40" as="geometry" />
        </mxCell>
        <mxCell id="QOLLg4jgMWTBETWeJYnG-82" value="address" style="ellipse;whiteSpace=wrap;html=1;align=center;" vertex="1" parent="1">
          <mxGeometry x="510" y="580" width="100" height="40" as="geometry" />
        </mxCell>
        <mxCell id="QOLLg4jgMWTBETWeJYnG-83" value="address_line1" style="ellipse;whiteSpace=wrap;html=1;align=center;" vertex="1" parent="1">
          <mxGeometry x="350" y="640" width="90" height="40" as="geometry" />
        </mxCell>
        <mxCell id="QOLLg4jgMWTBETWeJYnG-84" value="address_line2" style="ellipse;whiteSpace=wrap;html=1;align=center;" vertex="1" parent="1">
          <mxGeometry x="430" y="670" width="90" height="40" as="geometry" />
        </mxCell>
        <mxCell id="QOLLg4jgMWTBETWeJYnG-85" value="city" style="ellipse;whiteSpace=wrap;html=1;align=center;" vertex="1" parent="1">
          <mxGeometry x="520" y="645" width="60" height="30" as="geometry" />
        </mxCell>
        <mxCell id="QOLLg4jgMWTBETWeJYnG-86" value="state" style="ellipse;whiteSpace=wrap;html=1;align=center;" vertex="1" parent="1">
          <mxGeometry x="590" y="690" width="100" height="40" as="geometry" />
        </mxCell>
        <mxCell id="QOLLg4jgMWTBETWeJYnG-87" value="country" style="ellipse;whiteSpace=wrap;html=1;align=center;" vertex="1" parent="1">
          <mxGeometry x="650" y="630" width="100" height="40" as="geometry" />
        </mxCell>
        <mxCell id="QOLLg4jgMWTBETWeJYnG-88" value="pincode" style="ellipse;whiteSpace=wrap;html=1;align=center;" vertex="1" parent="1">
          <mxGeometry x="720" y="580" width="100" height="40" as="geometry" />
        </mxCell>
        <mxCell id="QOLLg4jgMWTBETWeJYnG-89" value="package" style="ellipse;whiteSpace=wrap;html=1;align=center;" vertex="1" parent="1">
          <mxGeometry x="550" y="420" width="100" height="40" as="geometry" />
        </mxCell>
        <mxCell id="QOLLg4jgMWTBETWeJYnG-90" value="physio_required" style="ellipse;whiteSpace=wrap;html=1;align=center;" vertex="1" parent="1">
          <mxGeometry x="680" y="400" width="100" height="40" as="geometry" />
        </mxCell>
        <mxCell id="QOLLg4jgMWTBETWeJYnG-91" value="trainer_preference" style="ellipse;whiteSpace=wrap;html=1;align=center;" vertex="1" parent="1">
          <mxGeometry x="730" y="460" width="120" height="40" as="geometry" />
        </mxCell>
        <mxCell id="QOLLg4jgMWTBETWeJYnG-93" value="" style="endArrow=none;html=1;rounded=0;entryX=0;entryY=0.25;entryDx=0;entryDy=0;exitX=1;exitY=1;exitDx=0;exitDy=0;" edge="1" parent="1" source="QOLLg4jgMWTBETWeJYnG-72" target="QOLLg4jgMWTBETWeJYnG-42">
          <mxGeometry relative="1" as="geometry">
            <mxPoint x="360" y="540" as="sourcePoint" />
            <mxPoint x="520" y="540" as="targetPoint" />
          </mxGeometry>
        </mxCell>
        <mxCell id="QOLLg4jgMWTBETWeJYnG-94" value="" style="endArrow=none;html=1;rounded=0;entryX=0;entryY=0.5;entryDx=0;entryDy=0;exitX=1;exitY=0.5;exitDx=0;exitDy=0;" edge="1" parent="1" source="QOLLg4jgMWTBETWeJYnG-74" target="QOLLg4jgMWTBETWeJYnG-42">
          <mxGeometry relative="1" as="geometry">
            <mxPoint x="360" y="540" as="sourcePoint" />
            <mxPoint x="520" y="540" as="targetPoint" />
          </mxGeometry>
        </mxCell>
        <mxCell id="QOLLg4jgMWTBETWeJYnG-95" value="" style="endArrow=none;html=1;rounded=0;entryX=0;entryY=0.75;entryDx=0;entryDy=0;exitX=0.7;exitY=0.05;exitDx=0;exitDy=0;exitPerimeter=0;" edge="1" parent="1" source="QOLLg4jgMWTBETWeJYnG-81" target="QOLLg4jgMWTBETWeJYnG-42">
          <mxGeometry relative="1" as="geometry">
            <mxPoint x="370" y="550" as="sourcePoint" />
            <mxPoint x="530" y="550" as="targetPoint" />
          </mxGeometry>
        </mxCell>
        <mxCell id="QOLLg4jgMWTBETWeJYnG-96" value="" style="endArrow=none;html=1;rounded=0;exitX=0.61;exitY=0.05;exitDx=0;exitDy=0;exitPerimeter=0;" edge="1" parent="1" source="QOLLg4jgMWTBETWeJYnG-42" target="QOLLg4jgMWTBETWeJYnG-89">
          <mxGeometry relative="1" as="geometry">
            <mxPoint x="630" y="509.5" as="sourcePoint" />
            <mxPoint x="790" y="509.5" as="targetPoint" />
          </mxGeometry>
        </mxCell>
        <mxCell id="QOLLg4jgMWTBETWeJYnG-97" value="" style="endArrow=none;html=1;rounded=0;entryX=0;entryY=0.5;entryDx=0;entryDy=0;exitX=1;exitY=0.5;exitDx=0;exitDy=0;" edge="1" parent="1" source="QOLLg4jgMWTBETWeJYnG-42" target="QOLLg4jgMWTBETWeJYnG-73">
          <mxGeometry relative="1" as="geometry">
            <mxPoint x="390" y="570" as="sourcePoint" />
            <mxPoint x="550" y="570" as="targetPoint" />
          </mxGeometry>
        </mxCell>
        <mxCell id="QOLLg4jgMWTBETWeJYnG-98" value="" style="endArrow=none;html=1;rounded=0;entryX=0;entryY=0.5;entryDx=0;entryDy=0;" edge="1" parent="1" source="QOLLg4jgMWTBETWeJYnG-82" target="QOLLg4jgMWTBETWeJYnG-88">
          <mxGeometry relative="1" as="geometry">
            <mxPoint x="580" y="559.5" as="sourcePoint" />
            <mxPoint x="740" y="559.5" as="targetPoint" />
          </mxGeometry>
        </mxCell>
        <mxCell id="QOLLg4jgMWTBETWeJYnG-99" value="" style="endArrow=none;html=1;rounded=0;exitX=0.75;exitY=0;exitDx=0;exitDy=0;entryX=0.41;entryY=1.075;entryDx=0;entryDy=0;entryPerimeter=0;" edge="1" parent="1" source="QOLLg4jgMWTBETWeJYnG-42" target="QOLLg4jgMWTBETWeJYnG-90">
          <mxGeometry relative="1" as="geometry">
            <mxPoint x="550" y="439" as="sourcePoint" />
            <mxPoint x="710" y="439" as="targetPoint" />
          </mxGeometry>
        </mxCell>
        <mxCell id="QOLLg4jgMWTBETWeJYnG-101" value="" style="endArrow=none;html=1;rounded=0;exitX=0.989;exitY=0.3;exitDx=0;exitDy=0;exitPerimeter=0;entryX=0;entryY=0.5;entryDx=0;entryDy=0;" edge="1" parent="1" source="QOLLg4jgMWTBETWeJYnG-83" target="QOLLg4jgMWTBETWeJYnG-82">
          <mxGeometry relative="1" as="geometry">
            <mxPoint x="410" y="590" as="sourcePoint" />
            <mxPoint x="530" y="600" as="targetPoint" />
          </mxGeometry>
        </mxCell>
        <mxCell id="QOLLg4jgMWTBETWeJYnG-102" value="" style="endArrow=none;html=1;rounded=0;exitX=1;exitY=0.25;exitDx=0;exitDy=0;entryX=0;entryY=0.5;entryDx=0;entryDy=0;" edge="1" parent="1" source="QOLLg4jgMWTBETWeJYnG-42" target="QOLLg4jgMWTBETWeJYnG-91">
          <mxGeometry relative="1" as="geometry">
            <mxPoint x="560" y="470" as="sourcePoint" />
            <mxPoint x="720" y="470" as="targetPoint" />
          </mxGeometry>
        </mxCell>
        <mxCell id="QOLLg4jgMWTBETWeJYnG-103" value="" style="endArrow=none;html=1;rounded=0;exitX=1;exitY=1;exitDx=0;exitDy=0;entryX=0;entryY=0.5;entryDx=0;entryDy=0;" edge="1" parent="1" source="QOLLg4jgMWTBETWeJYnG-82" target="QOLLg4jgMWTBETWeJYnG-87">
          <mxGeometry relative="1" as="geometry">
            <mxPoint x="620" y="590" as="sourcePoint" />
            <mxPoint x="710" y="589.5" as="targetPoint" />
          </mxGeometry>
        </mxCell>
        <mxCell id="QOLLg4jgMWTBETWeJYnG-104" value="" style="endArrow=none;html=1;rounded=0;exitX=0.61;exitY=1.075;exitDx=0;exitDy=0;exitPerimeter=0;" edge="1" parent="1" source="QOLLg4jgMWTBETWeJYnG-82" target="QOLLg4jgMWTBETWeJYnG-86">
          <mxGeometry relative="1" as="geometry">
            <mxPoint x="440" y="620" as="sourcePoint" />
            <mxPoint x="690" y="630" as="targetPoint" />
          </mxGeometry>
        </mxCell>
        <mxCell id="QOLLg4jgMWTBETWeJYnG-105" value="" style="endArrow=none;html=1;rounded=0;entryX=0.08;entryY=0.825;entryDx=0;entryDy=0;entryPerimeter=0;exitX=0.589;exitY=0.025;exitDx=0;exitDy=0;exitPerimeter=0;" edge="1" parent="1" source="QOLLg4jgMWTBETWeJYnG-84" target="QOLLg4jgMWTBETWeJYnG-82">
          <mxGeometry relative="1" as="geometry">
            <mxPoint x="450" y="630" as="sourcePoint" />
            <mxPoint x="610" y="630" as="targetPoint" />
          </mxGeometry>
        </mxCell>
        <mxCell id="QOLLg4jgMWTBETWeJYnG-107" value="" style="endArrow=none;html=1;rounded=0;entryX=0.36;entryY=1.025;entryDx=0;entryDy=0;entryPerimeter=0;exitX=0;exitY=0;exitDx=0;exitDy=0;" edge="1" parent="1" source="QOLLg4jgMWTBETWeJYnG-85" target="QOLLg4jgMWTBETWeJYnG-82">
          <mxGeometry relative="1" as="geometry">
            <mxPoint x="360" y="540" as="sourcePoint" />
            <mxPoint x="520" y="540" as="targetPoint" />
          </mxGeometry>
        </mxCell>
      </root>
    </mxGraphModel>
  </diagram>
</mxfile>
